# xmcd
#
# Track frame offsets:
#	150
#	14010
#	29437
#	43785
#	63640
#	75187
#
# Disc length: 1310 seconds
#
# Revision: 1
# Processed by: cddbd v1.5.2PL0 Copyright (c) Steve Scherf et al.
# Submitted via: audiograbber 1.83.01
#
DISCID=46051c06
DTITLE=Blues Point - Blues Point
DYEAR=1998
DGENRE=Blues
TTITLE0=Tell Your Ma
TTITLE1=Change my Way Of Livin
TTITLE2=Baby, Please
TTITLE3=Facade
TTITLE4=Bluespoint Swing
TTITLE5=Hoba Blues
EXTD=
EXTT0=
EXTT1=
EXTT2=
EXTT3=
EXTT4=
EXTT5=
PLAYORDER=
